<?xml version="1.0" encoding="utf-8"?>
<!-- Generator: Adobe Illustrator 24.2.3, SVG Export Plug-In . SVG Version: 6.00 Build 0)  -->
<svg version="1.1" id="Layer_1" xmlns="http://www.w3.org/2000/svg" xmlns:xlink="http://www.w3.org/1999/xlink" x="0px" y="0px"
	 viewBox="0 0 24 24" style="enable-background:new 0 0 24 24;" xml:space="preserve">
<style type="text/css">
	.st0{fill:#E84280;}
</style>
<g>
	<path class="st0" d="M11.1,23.6c-0.2-0.1-0.3-0.3-0.3-0.5c0-0.6,0-1.3,0-1.9c-4.4-0.9-7-3.5-7.9-7.9c-0.2,0-0.3,0-0.5,0
		c-0.5,0-1,0-1.4,0c-0.3,0-0.5-0.1-0.5-0.5c0-0.5,0-1,0-1.5c0-0.3,0.1-0.5,0.5-0.5c0.6,0,1.2,0,1.7,0c0.1,0,0.2,0,0.2,0
		c0.9-4.4,3.5-7,7.9-7.9c0-0.1,0-0.2,0-0.4c0-0.5,0-1,0-1.6c0-0.3,0.1-0.5,0.5-0.5c0.5,0,0.9,0,1.4,0c0.3,0,0.5,0.1,0.5,0.5
		c0,0.6,0,1.2,0,1.7c0,0.1,0,0.2,0,0.2c4,0.6,7.3,3.7,7.9,7.9c0.2,0,0.3,0,0.5,0c0.5,0,0.9,0,1.4,0c0.2,0,0.4,0.1,0.5,0.3
		c0,0.6,0,1.2,0,1.8c-0.1,0.2-0.3,0.3-0.5,0.3c-0.5,0-0.9,0-1.4,0c-0.2,0-0.4,0-0.5,0c-0.9,4.4-3.5,7-7.9,7.9c0,0.6,0,1.3,0,1.9
		c0,0.2-0.1,0.4-0.3,0.5C12.3,23.6,11.7,23.6,11.1,23.6z M5.2,12.1c0,3.7,3,6.7,6.7,6.8c3.7,0,6.7-3,6.8-6.7c0-3.7-3-6.7-6.7-6.8
		C8.3,5.3,5.2,8.4,5.2,12.1z"/>
	<path class="st0" d="M15.2,12.1c0,1.8-1.5,3.2-3.2,3.1c-1.8,0-3.2-1.5-3.2-3.2c0-1.8,1.5-3.2,3.2-3.1C13.8,8.9,15.2,10.4,15.2,12.1
		z"/>
</g>
</svg>
